<svg
  xmlns="http://www.w3.org/2000/svg"
  enable-background="new 0 0 365.043 275.545"
  height="100"
  viewBox="0 0 365.043 275.545"
  width="100"
  version="1.1"
  id="svg31"
>
  <style>
    /* Keyframes for the hammer animation */
    @keyframes hammer-hit {
      0%, 100% {
        transform: rotate(1deg) translate(0px, 0px);
      }
      50% {
        transform: rotate(60deg) translate(-45px, 0px);
      }
    }

    /* Keyframes for the spark animation */
    @keyframes sparkBurstAnimation {
      0% {
        opacity: 0;
      }
      49% { /* Quick burst out */
        opacity: 0.2;
        transform: scale(0.3) translate(0, 0); /* Start small at origin */
      }
      54% {
        opacity: 1;
        /* Sparks move outwards. Each spark gets its own tx, ty from CSS variables */
        transform: scale(1.5) translate(var(--spark-tx, 0px), var(--spark-ty, 0px));
      }
      58% {
        opacity: 0.4;
        transform: scale(0.3) translate(0, 0);
      }
      100% {
        opacity: 0;
      }
    }

    /* Animation classes */
    .animate-spark {
      animation-name: sparkBurstAnimation;
      animation-duration: 1.2s; /* Sparks last for 0.4 seconds */
      animation-timing-function: ease-out;
      animation-fill-mode: backwards; /* Stay at the end state (faded out, moved) */
      animation-iteration-count: infinite;
      opacity: 1; /* Initial opacity for the animation itself */
      /* transform-origin for each spark line is its own (0,0) due to parent group transform */
    }

    .animate-hammer-hit {
      animation: hammer-hit 1.2s ease-in-out infinite;
      transform-origin: bottom left;
    }
  </style>

  <g transform="scale(5)">
    <path
      fill="#cfd0ce"
      d="M26.375 14.833c1.548-0.494 3.096-1.594 4.644-3.19-1.549-1.624-3.063-2.424-4.644-2.725v-2.263h-18.874v1.643h-6.355c1.146 3.109 3.659 5.252 6.355 5.985v2.68h4.97c-0.863 2.931-2.652 5.337-4.839 7.419h-1.878v1.644c-0.008 0.007-0.016 0.013-0.024 0.020h0.024v2.223h23.505v-3.886h-2.499c-2.444-2.080-4.177-4.484-4.984-7.419h4.599v-2.131z"
    ></path>
  </g>

  <g class="animate-hammer-hit" transform="translate(-3 -32)">
    <svg
      width="150px"
      height="150px"
      viewBox="0 0 16 16"
      version="1.1"
      xmlns="http://www.w3.org/2000/svg"
      xmlns:xlink="http://www.w3.org/1999/xlink"
    >
      <path fill="#ACAAB1" d="M6 2l7 7 3-3-4.48-4.48s-2.97 1.030-4.52-0.52z"></path>
      <path
        fill="#77757E"
        d="M8.8 5.79l-8.53 8.52c-0.165 0.178-0.267 0.417-0.267 0.68s0.101 0.502 0.267 0.681c0.181 0.183 0.433 0.297 0.711 0.297 0.253 0 0.484-0.094 0.66-0.248l8.569-8.519z"
      ></path>
    </svg>
  </g>

  <g id="sparksContainer" transform="translate(240 100)">
    <svg
      class="overflow-visible"
      width="45px"
      height="45px"
      viewBox="0 0 16 16"
    >
      <line
        x1="0" y1="0" x2="-8" y2="-8"
        stroke="#F59E0B" stroke-width="1.5"
        class="animate-spark"
        style="--spark-tx: -15px; --spark-ty: -15px; animation-delay: 0.5s;"
      ></line>
      <line
        x1="0" y1="0" x2="8" y2="-8"
        stroke="#FBBF24" stroke-width="1.5"
        class="animate-spark"
        style="--spark-tx: 15px; --spark-ty: -15px; animation-delay: 0.52s;"
      ></line>
      <line
        x1="0" y1="0" x2="-10" y2="0"
        stroke="#EF4444" stroke-width="1.5"
        class="animate-spark"
        style="--spark-tx: -20px; --spark-ty: 0px; animation-delay: 0.54s;"
      ></line>
      <line
        x1="0" y1="0" x2="10" y2="0"
        stroke="#F59E0B" stroke-width="1.5"
        class="animate-spark"
        style="--spark-tx: 20px; --spark-ty: 0px; animation-delay: 0.56s;"
      ></line>
      <line
        x1="0" y1="0" x2="-6" y2="10"
        stroke="#FBBF24" stroke-width="1.5"
        class="animate-spark"
        style="--spark-tx: -10px; --spark-ty: 20px; animation-delay: 0.58s;"
      ></line>
      <line
        x1="0" y1="0" x2="6" y2="10"
        stroke="#EF4444" stroke-width="1.5"
        class="animate-spark"
        style="--spark-tx: 10px; --spark-ty: 20px; animation-delay: 0.6s;"
      ></line>
    </svg>
  </g>
</svg>
